<svg width="22" height="18" viewBox="0 0 22 18" fill="none" xmlns="http://www.w3.org/2000/svg">
<path d="M20.3046 1L21.3024 0.933846C21.2758 0.532703 21.0116 0.186489 20.6317 0.0549995C20.2518 -0.0764898 19.83 0.0323144 19.5612 0.331193L20.3046 1ZM19.9733 4.94521C19.9733 4.39292 19.5256 3.94521 18.9733 3.94521C18.421 3.94521 17.9733 4.39292 17.9733 4.94521H19.9733ZM10.9857 5.05479H9.98568V5.05479L10.9857 5.05479ZM10.9857 6.33333L11.9857 6.33333V6.33333L10.9857 6.33333ZM1.66675 15.6667V14.6667C1.22621 14.6667 0.83757 14.955 0.709759 15.3765C0.581949 15.7981 0.745081 16.2537 1.11145 16.4983L1.66675 15.6667ZM2.99802 1L3.93453 0.649352C3.79499 0.27668 3.44778 0.0222076 3.05038 0.00137168C2.65299 -0.0194641 2.28106 0.197302 2.10332 0.553339L2.99802 1ZM8.32313 13L9.03078 13.7066C9.2755 13.4615 9.37597 13.1072 9.29634 12.7701C9.21671 12.433 8.96832 12.1611 8.63979 12.0515L8.32313 13ZM17.9548 2.29784L17.2131 2.96853L17.5734 3.36701L18.1046 3.28657L17.9548 2.29784ZM19.3068 1.06615C19.3744 2.08647 19.3079 2.66271 19.1623 3.0733C19.024 3.46298 18.781 3.79932 18.2815 4.27798L19.6652 5.72202C20.2658 5.14653 20.7593 4.55344 21.0472 3.74195C21.3276 2.95136 21.3767 2.05467 21.3024 0.933846L19.3068 1.06615ZM19.9733 5.91666V4.94521H17.9733V5.91666H19.9733ZM9.98568 5.05479L9.98568 6.33333L11.9857 6.33333L11.9857 5.05479L9.98568 5.05479ZM9.98568 6.33333L9.98568 7L11.9857 7L11.9857 6.33333L9.98568 6.33333ZM15.0342 0C12.2445 0 9.98568 2.26457 9.98568 5.05479H11.9857C11.9857 3.36622 13.352 2 15.0342 2V0ZM17.9733 5.91666C17.9733 11.487 13.4651 16 7.90709 16V18C14.5725 18 19.9733 12.5886 19.9733 5.91666H17.9733ZM2.06152 1.35065C2.81544 3.36423 5.63211 7.33333 10.9857 7.33333V5.33333C6.75406 5.33333 4.51188 2.19133 3.93453 0.649352L2.06152 1.35065ZM2.10332 0.553339C0.675506 3.41338 0.43616 6.23056 1.50005 8.65222C2.56046 11.066 4.82819 12.8875 8.00646 13.9485L8.63979 12.0515C5.82732 11.1125 4.10123 9.60069 3.33113 7.84778C2.56452 6.10278 2.65799 3.91995 3.89273 1.44666L2.10332 0.553339ZM7.61547 12.2934C6.855 13.0551 4.52141 14.6667 1.66675 14.6667V16.6667C5.2022 16.6667 8.01624 14.7227 9.03078 13.7066L7.61547 12.2934ZM18.6966 1.62716C17.7944 0.629419 16.4872 0 15.0342 0V2C15.8979 2 16.6737 2.37203 17.2131 2.96853L18.6966 1.62716ZM18.1046 3.28657C19.1979 3.12098 20.2562 2.54896 21.048 1.66881L19.5612 0.331193C19.0669 0.88056 18.4227 1.21557 17.8051 1.30912L18.1046 3.28657ZM1.11145 16.4983C3.39437 18.0226 5.78892 18 7.90709 18V16C5.72284 16 3.93295 15.9774 2.22204 14.835L1.11145 16.4983Z" fill="#27AE60"/>
</svg>
