<svg width="22" height="18" viewBox="0 0 22 18" fill="none" xmlns="http://www.w3.org/2000/svg">
<path d="M20.3045 1L21.3024 0.933846C21.2758 0.532703 21.0115 0.186489 20.6316 0.0549995C20.2517 -0.0764898 19.83 0.0323144 19.5611 0.331193L20.3045 1ZM19.9733 4.94521C19.9733 4.39292 19.5256 3.94521 18.9733 3.94521C18.421 3.94521 17.9733 4.39292 17.9733 4.94521H19.9733ZM10.9856 5.05479H9.98561V5.05479L10.9856 5.05479ZM10.9856 6.33333L11.9856 6.33333V6.33333L10.9856 6.33333ZM1.66669 15.6667V14.6667C1.22615 14.6667 0.837509 14.955 0.709698 15.3765C0.581888 15.7981 0.74502 16.2537 1.11139 16.4983L1.66669 15.6667ZM2.99796 1L3.93447 0.649352C3.79493 0.27668 3.44771 0.0222076 3.05032 0.00137168C2.65293 -0.0194641 2.281 0.197302 2.10326 0.553339L2.99796 1ZM8.32306 13L9.03072 13.7066C9.27544 13.4615 9.37591 13.1072 9.29628 12.7701C9.21665 12.433 8.96826 12.1611 8.63973 12.0515L8.32306 13ZM17.9548 2.29784L17.213 2.96853L17.5733 3.36701L18.1045 3.28657L17.9548 2.29784ZM19.3067 1.06615C19.3744 2.08647 19.3079 2.66271 19.1622 3.0733C19.024 3.46298 18.7809 3.79932 18.2814 4.27798L19.6651 5.72202C20.2657 5.14653 20.7593 4.55344 21.0471 3.74195C21.3276 2.95136 21.3767 2.05467 21.3024 0.933846L19.3067 1.06615ZM19.9733 5.91666V4.94521H17.9733V5.91666H19.9733ZM9.98561 5.05479L9.98562 6.33333L11.9856 6.33333L11.9856 5.05479L9.98561 5.05479ZM9.98562 6.33333L9.98561 7L11.9856 7L11.9856 6.33333L9.98562 6.33333ZM15.0342 0C12.2445 0 9.98561 2.26457 9.98561 5.05479H11.9856C11.9856 3.36622 13.3519 2 15.0342 2V0ZM17.9733 5.91666C17.9733 11.487 13.465 16 7.90703 16V18C14.5725 18 19.9733 12.5886 19.9733 5.91666H17.9733ZM2.06146 1.35065C2.81538 3.36423 5.63205 7.33333 10.9856 7.33333V5.33333C6.754 5.33333 4.51182 2.19133 3.93447 0.649352L2.06146 1.35065ZM2.10326 0.553339C0.675445 3.41338 0.436099 6.23056 1.49999 8.65222C2.5604 11.066 4.82813 12.8875 8.0064 13.9485L8.63973 12.0515C5.82725 11.1125 4.10116 9.60069 3.33107 7.84778C2.56446 6.10278 2.65793 3.91995 3.89267 1.44666L2.10326 0.553339ZM7.61541 12.2934C6.85494 13.0551 4.52135 14.6667 1.66669 14.6667V16.6667C5.20214 16.6667 8.01618 14.7227 9.03072 13.7066L7.61541 12.2934ZM18.6965 1.62716C17.7943 0.629419 16.4871 0 15.0342 0V2C15.8978 2 16.6737 2.37203 17.213 2.96853L18.6965 1.62716ZM18.1045 3.28657C19.1978 3.12098 20.2562 2.54896 21.048 1.66881L19.5611 0.331193C19.0669 0.88056 18.4227 1.21557 17.805 1.30912L18.1045 3.28657ZM1.11139 16.4983C3.39431 18.0226 5.78886 18 7.90703 18V16C5.72278 16 3.93289 15.9774 2.22198 14.835L1.11139 16.4983Z" fill="#4F4F4F"/>
</svg>
